:SAMPLES-PER-SECOND 30
:FULLY-SPECIFIED
:DEGREES
108
root  -12.1338 42.5261 2.19543 94.5938 -80.6808 -95.8948
RightUpLeg  3.46121 -8.60771 3.57114
RightLeg  69.2928 2.27867 6.01039
RightFoot  -35.0402 2.90881 14.9993
RightToes  0.00048216 0.542163 -0.142577
Spine  -2.91983 4.16237 17.5082
Spine1  11.7004 6.67029 -7.36829
HEad  9.98848 -1.65192 1.37541
LeftShoulder1  5.06416 -8.40507 -36.4042
LeftArm  -11.8663 49.1395 -19.0822
LeftForeArm  37.1756 -28.8117 -4.21832
LeftHand  -0.25398 0.0180481 5.50724
RightShoulder  4.0846 7.60823 30.8088
RightArm  6.70087 -9.74962 38.2599
RightForeArm  17.3315 55.5519 15.0291
RightHand  -1.25375 2.52475 -18.5036
LeftUpLeg  -8.09685 10.4673 8.01423
LeftLeg  -1.78529 17.4251 -8.26668
LeftFoot  22.2805 -0.347923 1.08427
LeftToes  1.06247e-005 4.65855e-005 -8.185e-006
109
root  -13.7724 41.0891 2.42045 77.7635 -82.4015 -78.8298
RightUpLeg  1.68371 -10.3811 -1.53351
RightLeg  79.4159 1.85882 10.1234
RightFoot  -26.7488 2.14675 17.0914
RightToes  0.00048216 0.542163 -0.142577
Spine  -2.5327 3.51531 13.4998
Spine1  9.97916 5.77738 -6.32028
HEad  6.42213 -2.80103 1.9198
LeftShoulder1  4.72673 -7.62333 -36.3674
LeftArm  -14.5841 48.7133 -19.4498
LeftForeArm  35.709 -27.5644 -4.03091
LeftHand  -0.25398 0.0180481 5.50724
RightShoulder  3.94429 7.17051 31.0055
RightArm  3.10108 -14.5027 37.6702
RightForeArm  17.3236 53.1977 13.6706
RightHand  -1.06909 1.66158 -17.7572
LeftUpLeg  -10.1166 16.9567 1.94289
LeftLeg  8.47194 9.16845 -3.69336
LeftFoot  4.61821 -1.41667 9.73257
LeftToes  1.06247e-005 4.65855e-005 -8.185e-006
110
root  -14.8777 39.7458 2.4651 43.6017 -84.4058 -45.372
RightUpLeg  -2.87223 -10.3781 -6.79527
RightLeg  92.0681 -0.405806 10.5947
RightFoot  -17.0894 0.780641 17.5865
RightToes  0.00048216 0.542163 -0.142577
Spine  2.0956 2.75975 7.05537
Spine1  8.22374 4.65616 -4.50219
HEad  -0.264618 -4.274 2.41931
LeftShoulder1  5.0028 -7.60988 -38.7533
LeftArm  -17.2438 42.6245 -20.239
LeftForeArm  31.072 -22.1362 -3.09989
LeftHand  -0.25398 0.0180481 5.50724
RightShoulder  4.15612 7.1991 32.8757
RightArm  -2.9056 -15.7855 37.0261
RightForeArm  14.5527 46.0661 10.6812
RightHand  -1.36818 2.73255 -19.3928
LeftUpLeg  -14.1552 23.4969 -5.58684
LeftLeg  20.9245 1.48725 1.77245
LeftFoot  -8.58044 -0.340198 13.7166
LeftToes  1.06247e-005 4.65855e-005 -8.185e-006
111
root  -15.6077 38.8776 2.39407 3.94618 -84.4885 -7.61354
RightUpLeg  -8.53742 -8.01355 -9.51296
RightLeg  102.769 -1.9547 8.70481
RightFoot  -12.3305 0.0570999 16.2393
RightToes  0.00048216 0.542163 -0.142577
Spine  8.91474 2.39499 2.55495
Spine1  7.05767 4.0282 -4.45787
HEad  -6.53047 -5.66864 3.07687
LeftShoulder1  5.89725 -8.87069 -41.3014
LeftArm  -18.0138 33.6885 -21.6253
LeftForeArm  26.2499 -15.1313 -2.04799
LeftHand  -0.25398 0.0180481 5.50724
RightShoulder  4.58293 7.77736 34.67
RightArm  -7.76101 -13.8737 37.7872
RightForeArm  6.41023 31.9823 6.86499
RightHand  -2.34383 6.34523 -23.3902
LeftUpLeg  -14.9019 18.2228 -7.77516
LeftLeg  29.795 5.75625 3.83724
LeftFoot  -13.0568 0.262435 12.122
LeftToes  1.06247e-005 4.65855e-005 -8.185e-006
112
root  -16.4034 38.6578 2.42021 -9.0863 -83.2868 2.94374
RightUpLeg  -14.0106 -5.28744 -8.79159
RightLeg  107.907 -1.77163 5.86492
RightFoot  -11.8334 -0.0288401 13.1532
RightToes  0.00048216 0.542163 -0.142577
Spine  14.2254 1.56196 2.44894
Spine1  6.76345 3.59023 -6.22337
HEad  -9.68078 -6.31757 3.32072
LeftShoulder1  6.78302 -10.5232 -41.9842
LeftArm  -17.4166 25.7924 -24.044
LeftForeArm  27.2348 -11.6828 -2.26249
LeftHand  -0.25398 0.0180481 5.50724
RightShoulder  4.92411 8.56105 34.8626
RightArm  -10.0968 -11.3384 39.4089
RightForeArm  -0.267269 15.1594 5.10805
RightHand  -2.39921 6.488 -23.2945
LeftUpLeg  -11.8667 16.5258 -7.68564
LeftLeg  32.3786 6.27864 4.62016
LeftFoot  -14.0313 0.314679 9.73045
LeftToes  1.06247e-005 4.65855e-005 -8.185e-006
113
root  -17.4425 38.9123 2.57153 -6.59373 -81.841 -1.06088
RightUpLeg  -19.0106 -4.12063 -6.7647
RightLeg  106.383 -0.281771 1.82199
RightFoot  -12.6425 0.0429801 11.2604
RightToes  0.00048216 0.542163 -0.142577
Spine  16.2106 0.228401 3.57778
Spine1  7.43511 2.5649 -6.76087
HEad  -10.2534 -6.05449 2.63082
LeftShoulder1  7.2516 -11.5793 -41.7136
LeftArm  -14.8219 20.5004 -27.1929
LeftForeArm  33.9499 -15.0087 -2.96479
LeftHand  -0.25398 0.0180481 5.50724
RightShoulder  5.1088 9.20906 34.2339
RightArm  -12.6612 -11.3006 39.8449
RightForeArm  4.97711 4.63844 6.16425
RightHand  -1.02934 1.46993 -17.3732
LeftUpLeg  -6.85488 14.5178 -6.6087
LeftLeg  29.8791 6.90176 4.61129
LeftFoot  -15.3242 0.408214 9.05586
LeftToes  1.06247e-005 4.65855e-005 -8.185e-006
114
root  -18.6237 39.3888 2.70615 -4.38924 -79.7486 -3.29243
RightUpLeg  -23.6185 -4.58347 -5.27378
RightLeg  99.7107 1.06529 -3.78215
RightFoot  -12.6844 0.0393623 10.5695
RightToes  0.00048216 0.542163 -0.142577
Spine  15.9376 -0.799237 2.75723
Spine1  8.32654 0.81183 -4.35642
HEad  -10.2323 -5.27447 1.5297
LeftShoulder1  7.37273 -11.7005 -42.1042
LeftArm  -10.0553 16.8349 -30.0587
LeftForeArm  41.358 -23.6523 -3.15384
LeftHand  -0.25398 0.0180481 5.50724
RightShoulder  5.21389 9.45161 34.2944
RightArm  -8.97678 -14.6093 38.5143
RightForeArm  13.7192 5.0103 6.32524
RightHand  -0.526974 -0.854047 -13.679
LeftUpLeg  -2.53642 12.6557 -5.88735
LeftLeg  25.4762 6.94846 3.94647
LeftFoot  -15.291 0.393166 8.66862
LeftToes  1.06247e-005 4.65855e-005 -8.185e-006
